<?xml version="1.0" encoding="UTF-8"?>
<svg width="1386px" height="786px" viewBox="0 0 1386 786" version="1.1" xmlns="http://www.w3.org/2000/svg" xmlns:xlink="http://www.w3.org/1999/xlink" style="background: #F5F5F5;">
    <defs>
        <rect id="path-1" x="0" y="0" width="1385" height="786"></rect>
        <filter x="-3.5%" y="-4.1%" width="106.9%" height="112.2%" filterUnits="objectBoundingBox" id="filter-2">
            <feOffset dx="0" dy="16" in="SourceAlpha" result="shadowOffsetOuter1"></feOffset>
            <feGaussianBlur stdDeviation="8" in="shadowOffsetOuter1" result="shadowBlurOuter1"></feGaussianBlur>
            <feColorMatrix values="0 0 0 0 0   0 0 0 0 0   0 0 0 0 0  0 0 0 0.24 0" type="matrix" in="shadowBlurOuter1" result="shadowMatrixOuter1"></feColorMatrix>
            <feOffset dx="0" dy="0" in="SourceAlpha" result="shadowOffsetOuter2"></feOffset>
            <feGaussianBlur stdDeviation="8" in="shadowOffsetOuter2" result="shadowBlurOuter2"></feGaussianBlur>
            <feColorMatrix values="0 0 0 0 0   0 0 0 0 0   0 0 0 0 0  0 0 0 0.18 0" type="matrix" in="shadowBlurOuter2" result="shadowMatrixOuter2"></feColorMatrix>
            <feMerge>
                <feMergeNode in="shadowMatrixOuter1"></feMergeNode>
                <feMergeNode in="shadowMatrixOuter2"></feMergeNode>
            </feMerge>
        </filter>
        <rect id="path-3" x="0" y="0" width="1386" height="786"></rect>
        <filter x="-0.9%" y="-1.5%" width="101.7%" height="103.1%" filterUnits="objectBoundingBox" id="filter-4">
            <feOffset dx="0" dy="0" in="SourceAlpha" result="shadowOffsetOuter1"></feOffset>
            <feGaussianBlur stdDeviation="4" in="shadowOffsetOuter1" result="shadowBlurOuter1"></feGaussianBlur>
            <feColorMatrix values="0 0 0 0 0   0 0 0 0 0   0 0 0 0 0  0 0 0 0.12 0" type="matrix" in="shadowBlurOuter1"></feColorMatrix>
        </filter>
        <path d="M693.425535,391.503134 L693.425452,394.730093 L686.685303,387.989945 L693.425799,381.249449 L693.425717,384.438459 L704.566547,384.438459 C704.842689,384.438459 705.066547,384.214602 705.066547,383.938459 L705.066547,377.790995 C705.066547,377.514853 704.842689,377.290995 704.566547,377.290995 L704.566547,377.290995 L684.023792,377.290995 L684.023792,377.290995 C683.74765,377.290995 683.523792,377.514853 683.523792,377.790995 L683.523792,410.055066 C683.523792,410.331208 683.74765,410.555066 684.023792,410.555066 L691.433331,410.555066 C691.709474,410.555066 691.933331,410.331208 691.933331,410.055066 L691.933331,399.975423 C691.933331,399.699281 692.157189,399.475423 692.433331,399.475423 L692.433331,399.475423 L698.78293,399.475423 L698.783012,402.650699 L705.632797,395.800914 L698.782659,388.950775 L698.782725,391.503134 L693.425535,391.503134 Z M693.353553,363.108221 L722.891779,392.646447 C723.087041,392.841709 723.087041,393.158291 722.891779,393.353553 L693.353553,422.891779 L693.353553,422.891779 C693.158291,423.087041 692.841709,423.087041 692.646447,422.891779 L663.108221,393.353553 C662.912959,393.158291 662.912959,392.841709 663.108221,392.646447 L692.646447,363.108221 L692.646447,363.108221 C692.841709,362.912959 693.158291,362.912959 693.353553,363.108221 L693.353553,363.108221 Z" id="path-5"></path>
        <filter x="-32.5%" y="-27.5%" width="165.0%" height="165.0%" filterUnits="objectBoundingBox" id="filter-6">
            <feOffset dx="0" dy="3" in="SourceAlpha" result="shadowOffsetOuter1"></feOffset>
            <feGaussianBlur stdDeviation="6" in="shadowOffsetOuter1" result="shadowBlurOuter1"></feGaussianBlur>
            <feColorMatrix values="0 0 0 0 0   0 0 0 0 0   0 0 0 0 0  0 0 0 0.2 0" type="matrix" in="shadowBlurOuter1"></feColorMatrix>
        </filter>
        <circle id="path-7" cx="59.5" cy="59.5" r="59.5"></circle>
        <circle id="path-8" cx="59.5" cy="59.5" r="59.5"></circle>
        <circle id="path-9" cx="79.5" cy="79.5" r="79.5"></circle>
        <circle id="path-10" cx="79.5" cy="79.5" r="79.5"></circle>
        <circle id="path-11" cx="40" cy="40" r="40"></circle>
        <circle id="path-12" cx="40" cy="40" r="40"></circle>
    </defs>
    <g id="Login" stroke="none" stroke-width="1" fill="none" fill-rule="evenodd">
        <g id="Auth.-Screen-saver-1">
            <g id="bg-dark">
                <use fill="black" fill-opacity="1" filter="url(#filter-2)" xlink:href="#path-1"></use>
                <use fill="#F5F5F5" fill-rule="evenodd" xlink:href="#path-1"></use>
                <use fill="#2B3136" fill-rule="evenodd" xlink:href="#path-1"></use>
                <use fill="#B02637" fill-rule="evenodd" xlink:href="#path-1"></use>
                <use fill-opacity="0.1" fill="#000000" fill-rule="evenodd" xlink:href="#path-1"></use>
            </g>
            <g id="bg-light">
                <use fill="black" fill-opacity="1" filter="url(#filter-4)" xlink:href="#path-3"></use>
                <use fill="#DB3045" fill-rule="evenodd" xlink:href="#path-3"></use>
            </g>
            <g id="Logo">
                <use fill="black" fill-opacity="1" filter="url(#filter-6)" xlink:href="#path-5"></use>
                <use fill="#FFFFFF" fill-rule="evenodd" xlink:href="#path-5"></use>
            </g>
            <g id="FX" transform="translate(152.000000, -63.000000)">
                <g id="Group-6" opacity="0.2" transform="translate(0.000000, 338.000000)">
                    <g id="Group-5">
                        <g id="Group-4" transform="translate(5.987421, 5.987421)" stroke-linecap="square" stroke="#000000" stroke-width="2.25">
                            <g id="Group-3" transform="translate(0.349497, 0.349497)">
                                <path d="M0.741775708,103.336044 L103.762729,0.315091004" id="Line-6"></path>
                                <path d="M103.638605,103.336044 L0.617651704,0.315091004 L103.638605,103.336044 Z" id="Line-6-Copy"></path>
                            </g>
                        </g>
                        <g id="Oval-4">
                            <use fill="#DB3045" fill-rule="evenodd" xlink:href="#path-7"></use>
                            <circle stroke="#000000" stroke-width="2.25" cx="59.5" cy="59.5" r="58.375"></circle>
                        </g>
                    </g>
                    <polygon id="F" fill="#000000" points="79.7052019 63.7917649 44.7942815 63.7917649 44.7942815 98.9744435 42.5489985 98.9744435 42.5489985 31.602797 84.2861037 31.602797 84.2861037 33.854658 44.7942815 33.854658 44.7942815 61.9570553 79.7052019 61.9570553"></polygon>
                </g>
                <g id="Group-6-Copy-3" opacity="0.2" transform="translate(392.000000, 770.000000)">
                    <g id="Group-5">
                        <g id="Group-4" transform="translate(5.987421, 5.987421)" stroke-linecap="square" stroke="#000000" stroke-width="2.25">
                            <g id="Group-3" transform="translate(0.349497, 0.349497)">
                                <path d="M0.741775708,103.336044 L103.762729,0.315091004" id="Line-6"></path>
                                <path d="M103.638605,103.336044 L0.617651704,0.315091004 L103.638605,103.336044 Z" id="Line-6-Copy"></path>
                            </g>
                        </g>
                        <g id="Oval-4">
                            <use fill="#DB3045" fill-rule="evenodd" xlink:href="#path-8"></use>
                            <circle stroke="#000000" stroke-width="2.25" cx="59.5" cy="59.5" r="58.375"></circle>
                        </g>
                    </g>
                    <polygon id="F" fill="#000000" points="79.7052019 63.7917649 44.7942815 63.7917649 44.7942815 98.9744435 42.5489985 98.9744435 42.5489985 31.602797 84.2861037 31.602797 84.2861037 33.854658 44.7942815 33.854658 44.7942815 61.9570553 79.7052019 61.9570553"></polygon>
                </g>
                <g id="Group-6-Copy-2" opacity="0.100000001" transform="translate(802.000000, 622.000000)">
                    <g id="Group-5">
                        <g id="Group-4" transform="translate(8.000000, 8.000000)" stroke-linecap="square" stroke="#000000" stroke-width="3">
                            <g id="Group-3" transform="translate(0.466974, 0.466974)">
                                <path d="M0.99111208,138.070848 L138.640957,0.421003946" id="Line-6"></path>
                                <path d="M138.47511,138.070848 L0.825265722,0.421003946 L138.47511,138.070848 Z" id="Line-6-Copy"></path>
                            </g>
                        </g>
                        <g id="Oval-4">
                            <use fill="#DB3045" fill-rule="evenodd" xlink:href="#path-9"></use>
                            <circle stroke="#000000" stroke-width="3" cx="79.5" cy="79.5" r="78"></circle>
                        </g>
                    </g>
                    <polygon id="F" fill="#000000" points="106.496866 85.234375 59.8511829 85.234375 59.8511829 132.243164 56.8511829 132.243164 56.8511829 42.2255859 112.617567 42.2255859 112.617567 45.234375 59.8511829 45.234375 59.8511829 82.7829563 106.496866 82.7829563"></polygon>
                </g>
                <g id="Group-6-Copy-5" opacity="0.3" transform="translate(267.000000, 0.000000)">
                    <g id="Group-5">
                        <g id="Group-4" transform="translate(8.000000, 8.000000)" stroke-linecap="square" stroke="#000000" stroke-width="3">
                            <g id="Group-3" transform="translate(0.466974, 0.466974)">
                                <path d="M0.99111208,138.070848 L138.640957,0.421003946" id="Line-6"></path>
                                <path d="M138.47511,138.070848 L0.825265722,0.421003946 L138.47511,138.070848 Z" id="Line-6-Copy"></path>
                            </g>
                        </g>
                        <g id="Oval-4">
                            <use fill="#DB3045" fill-rule="evenodd" xlink:href="#path-10"></use>
                            <circle stroke="#000000" stroke-width="3" cx="79.5" cy="79.5" r="78"></circle>
                        </g>
                    </g>
                    <polygon id="F" fill="#000000" points="106.496866 85.234375 59.8511829 85.234375 59.8511829 132.243164 56.8511829 132.243164 56.8511829 42.2255859 112.617567 42.2255859 112.617567 45.234375 59.8511829 45.234375 59.8511829 82.7829563 106.496866 82.7829563"></polygon>
                </g>
                <g id="Group-6-Copy" opacity="0.1" transform="translate(896.000000, 159.000000)">
                    <g id="Group-5">
                        <g id="Group-4" transform="translate(4.025157, 4.025157)" stroke-linecap="square" stroke="#000000" stroke-width="1.5">
                            <g id="Group-3" transform="translate(0.234956, 0.234956)">
                                <path d="M0.498672745,69.4696093 L69.7564562,0.211825885" id="Line-6"></path>
                                <path d="M69.6730114,69.4696093 L0.415228036,0.211825885 L69.6730114,69.4696093 Z" id="Line-6-Copy"></path>
                            </g>
                        </g>
                        <g id="Oval-4">
                            <use fill="#DB3045" fill-rule="evenodd" xlink:href="#path-11"></use>
                            <circle stroke="#000000" stroke-width="1.5" cx="40" cy="40" r="39.25"></circle>
                        </g>
                    </g>
                    <polygon id="F" fill="#000000" points="53.583329 42.8852201 30.1138027 42.8852201 30.1138027 66.537441 28.6043687 66.537441 28.6043687 21.2455778 56.6629269 21.2455778 56.6629269 22.759434 30.1138027 22.759434 30.1138027 41.6518019 53.583329 41.6518019"></polygon>
                </g>
                <g id="Group-6-Copy-4" opacity="0.1" transform="translate(187.000000, 690.000000)">
                    <g id="Group-5">
                        <g id="Group-4" transform="translate(4.025157, 4.025157)" stroke-linecap="square" stroke="#000000" stroke-width="1.5">
                            <g id="Group-3" transform="translate(0.234956, 0.234956)">
                                <path d="M0.498672745,69.4696093 L69.7564562,0.211825885" id="Line-6"></path>
                                <path d="M69.6730114,69.4696093 L0.415228036,0.211825885 L69.6730114,69.4696093 Z" id="Line-6-Copy"></path>
                            </g>
                        </g>
                        <g id="Oval-4">
                            <use fill="#DB3045" fill-rule="evenodd" xlink:href="#path-12"></use>
                            <circle stroke="#000000" stroke-width="1.5" cx="40" cy="40" r="39.25"></circle>
                        </g>
                    </g>
                    <polygon id="F" fill="#000000" points="53.583329 42.8852201 30.1138027 42.8852201 30.1138027 66.537441 28.6043687 66.537441 28.6043687 21.2455778 56.6629269 21.2455778 56.6629269 22.759434 30.1138027 22.759434 30.1138027 41.6518019 53.583329 41.6518019"></polygon>
                </g>
            </g>
        </g>
    </g>
</svg>