<?xml version="1.0" encoding="UTF-8"?>
<svg width="1386px" height="786px" viewBox="0 0 1386 786" version="1.1" xmlns="http://www.w3.org/2000/svg" xmlns:xlink="http://www.w3.org/1999/xlink" style="background: #F5F5F5;">
    <defs>
        <rect id="path-1" x="0" y="0" width="1385" height="786"></rect>
        <filter x="-3.5%" y="-4.1%" width="106.9%" height="112.2%" filterUnits="objectBoundingBox" id="filter-2">
            <feOffset dx="0" dy="16" in="SourceAlpha" result="shadowOffsetOuter1"></feOffset>
            <feGaussianBlur stdDeviation="8" in="shadowOffsetOuter1" result="shadowBlurOuter1"></feGaussianBlur>
            <feColorMatrix values="0 0 0 0 0   0 0 0 0 0   0 0 0 0 0  0 0 0 0.24 0" type="matrix" in="shadowBlurOuter1" result="shadowMatrixOuter1"></feColorMatrix>
            <feOffset dx="0" dy="0" in="SourceAlpha" result="shadowOffsetOuter2"></feOffset>
            <feGaussianBlur stdDeviation="8" in="shadowOffsetOuter2" result="shadowBlurOuter2"></feGaussianBlur>
            <feColorMatrix values="0 0 0 0 0   0 0 0 0 0   0 0 0 0 0  0 0 0 0.18 0" type="matrix" in="shadowBlurOuter2" result="shadowMatrixOuter2"></feColorMatrix>
            <feMerge>
                <feMergeNode in="shadowMatrixOuter1"></feMergeNode>
                <feMergeNode in="shadowMatrixOuter2"></feMergeNode>
            </feMerge>
        </filter>
        <rect id="path-3" x="0" y="0" width="1386" height="786"></rect>
        <filter x="-0.9%" y="-1.5%" width="101.7%" height="103.1%" filterUnits="objectBoundingBox" id="filter-4">
            <feOffset dx="0" dy="0" in="SourceAlpha" result="shadowOffsetOuter1"></feOffset>
            <feGaussianBlur stdDeviation="4" in="shadowOffsetOuter1" result="shadowBlurOuter1"></feGaussianBlur>
            <feColorMatrix values="0 0 0 0 0   0 0 0 0 0   0 0 0 0 0  0 0 0 0.12 0" type="matrix" in="shadowBlurOuter1"></feColorMatrix>
        </filter>
        <path d="M693.425535,391.503134 L693.425452,394.730093 L686.685303,387.989945 L693.425799,381.249449 L693.425717,384.438459 L704.566547,384.438459 C704.842689,384.438459 705.066547,384.214602 705.066547,383.938459 L705.066547,377.790995 C705.066547,377.514853 704.842689,377.290995 704.566547,377.290995 L704.566547,377.290995 L684.023792,377.290995 L684.023792,377.290995 C683.74765,377.290995 683.523792,377.514853 683.523792,377.790995 L683.523792,410.055066 C683.523792,410.331208 683.74765,410.555066 684.023792,410.555066 L691.433331,410.555066 C691.709474,410.555066 691.933331,410.331208 691.933331,410.055066 L691.933331,399.975423 C691.933331,399.699281 692.157189,399.475423 692.433331,399.475423 L692.433331,399.475423 L698.78293,399.475423 L698.783012,402.650699 L705.632797,395.800914 L698.782659,388.950775 L698.782725,391.503134 L693.425535,391.503134 Z M693.353553,363.108221 L722.891779,392.646447 C723.087041,392.841709 723.087041,393.158291 722.891779,393.353553 L693.353553,422.891779 L693.353553,422.891779 C693.158291,423.087041 692.841709,423.087041 692.646447,422.891779 L663.108221,393.353553 C662.912959,393.158291 662.912959,392.841709 663.108221,392.646447 L692.646447,363.108221 L692.646447,363.108221 C692.841709,362.912959 693.158291,362.912959 693.353553,363.108221 L693.353553,363.108221 Z" id="path-5"></path>
        <filter x="-32.5%" y="-27.5%" width="165.0%" height="165.0%" filterUnits="objectBoundingBox" id="filter-6">
            <feOffset dx="0" dy="3" in="SourceAlpha" result="shadowOffsetOuter1"></feOffset>
            <feGaussianBlur stdDeviation="6" in="shadowOffsetOuter1" result="shadowBlurOuter1"></feGaussianBlur>
            <feColorMatrix values="0 0 0 0 0   0 0 0 0 0   0 0 0 0 0  0 0 0 0.2 0" type="matrix" in="shadowBlurOuter1"></feColorMatrix>
        </filter>
    </defs>
    <g id="Login" stroke="none" stroke-width="1" fill="none" fill-rule="evenodd">
        <g id="Auth.-Screen-saver-2">
            <g id="bg-dark">
                <use fill="black" fill-opacity="1" filter="url(#filter-2)" xlink:href="#path-1"></use>
                <use fill="#F5F5F5" fill-rule="evenodd" xlink:href="#path-1"></use>
                <use fill="#2B3136" fill-rule="evenodd" xlink:href="#path-1"></use>
                <use fill="#B02637" fill-rule="evenodd" xlink:href="#path-1"></use>
                <use fill-opacity="0.1" fill="#000000" fill-rule="evenodd" xlink:href="#path-1"></use>
            </g>
            <g id="bg-light">
                <use fill="black" fill-opacity="1" filter="url(#filter-4)" xlink:href="#path-3"></use>
                <use fill="#DB3045" fill-rule="evenodd" xlink:href="#path-3"></use>
            </g>
            <g id="Logo">
                <use fill="black" fill-opacity="1" filter="url(#filter-6)" xlink:href="#path-5"></use>
                <use fill="#FFFFFF" fill-rule="evenodd" xlink:href="#path-5"></use>
            </g>
            <g id="Group" opacity="0.100000001" transform="translate(69.000000, 365.000000)">
                <path d="M0,63.5230352 L0,72.4119241 L60.1908257,72.4119241 C58.4587156,73.2791328 56.9431193,74.1463415 55.2110092,75.0135501 C39.4055046,83.0352304 29.4458716,88.6720867 25.5486239,91.9241192 L0,91.9241192 L0,100.813008 L17.1045872,100.813008 C13.2073394,106.449864 11.2587156,112.95393 11.2587156,119.891599 C11.2587156,132.249322 15.1559633,142.00542 23.1669725,149.376694 C30.9614679,156.314363 42.2201835,160 56.5100917,160 C70.1504587,160 81.1926606,156.314363 89.4201835,148.943089 C97.6477064,141.138211 102.627523,129.864499 104.792661,115.555556 L92.0183486,115.555556 C88.5541284,137.452575 76.8623853,148.509485 56.5100917,148.509485 C46.1174312,148.509485 38.3229358,145.691057 32.693578,140.271003 C27.0642202,135.284553 24.466055,128.563686 24.466055,119.891599 C24.466055,112.95393 27.9302752,106.449864 35.0752294,100.813008 L118,100.813008 L118,91.9241192 L48.4990826,91.9241192 C51.5302752,90.1897019 55.2110092,88.2384824 59.1082569,86.2872629 C70.8,80.4336043 79.4605505,75.8807588 85.0899083,72.4119241 L118,72.4119241 L118,63.5230352 L95.6990826,63.5230352 C101.761468,56.5853659 104.792661,48.7804878 104.792661,40.1084011 C104.792661,27.5338753 100.678899,17.5609756 92.4513761,10.6233062 C84.2238532,3.46883469 73.1816514,0 59.3247706,0 C45.6844037,0 34.8587156,3.68563686 26.6311927,11.2737127 C18.187156,19.0785908 12.9908257,30.1355014 11.0422018,44.8780488 L23.8165138,44.8780488 C27.0642202,22.5474255 38.9724771,11.4905149 59.3247706,11.4905149 C69.7174312,11.4905149 77.7284404,13.8753388 83.3577982,18.8617886 C88.7706422,23.8482385 91.5853211,30.7859079 91.5853211,39.8915989 C91.5853211,47.4796748 87.9045872,54.200542 80.9761468,60.0542005 C79.6770642,60.9214092 78.1614679,62.2222222 75.9963303,63.5230352 L0,63.5230352 Z" id="₴-copy" fill="#000000"></path>
                <path d="M17.7208701,44.3022317 C21.3580374,24.2669218 28.1881377,5 60.6010359,5 C92.6367819,5 101.910186,31.1800788 96.5215332,48.3029877 C91.1328801,65.4258966 83.5033897,66.8167024 62.837246,77.5122437 C42.1711023,88.2077851 26.3232797,96.5444452 19.7430611,108.567733 C13.1628424,120.591021 16.5883043,152.315638 50.5224733,154.835671 C84.4566422,157.355704 97.5071777,130.271776 98,116.130166" id="Path-2" stroke="#000000" stroke-width="3"></path>
                <path d="M1,68 L117,68" id="Path-3" stroke="#000000" stroke-width="3"></path>
                <path d="M1,97 L118,97" id="Path-4" stroke="#000000" stroke-width="3"></path>
            </g>
            <g id="Group-Copy-4" opacity="0.200000018" transform="translate(381.000000, 148.000000)">
                <path d="M0,49.2303523 L0,56.1192412 L46.9284404,56.1192412 C45.5779817,56.7913279 44.3963303,57.4634146 43.0458716,58.1355014 C30.7229358,64.3523035 22.9577982,68.7208672 19.9192661,71.2411924 L0,71.2411924 L0,78.1300813 L13.3357798,78.1300813 C10.2972477,82.498645 8.77798165,87.5392954 8.77798165,92.9159892 C8.77798165,102.493225 11.8165138,110.054201 18.0623853,115.766938 C24.1394495,121.143631 32.9174312,124 44.0587156,124 C54.693578,124 63.3027523,121.143631 69.7174312,115.430894 C76.1321101,109.382114 80.0146789,100.644986 81.7027523,89.5555556 L71.7431193,89.5555556 C69.0422018,106.525745 59.9266055,115.094851 44.0587156,115.094851 C35.9559633,115.094851 29.8788991,112.910569 25.4899083,108.710027 C21.1009174,104.845528 19.0752294,99.6368564 19.0752294,92.9159892 C19.0752294,87.5392954 21.7761468,82.498645 27.346789,78.1300813 L92,78.1300813 L92,71.2411924 L37.812844,71.2411924 C40.1761468,69.897019 43.0458716,68.3848238 46.0844037,66.8726287 C55.2,62.3360434 61.9522936,58.8075881 66.3412844,56.1192412 L92,56.1192412 L92,49.2303523 L74.612844,49.2303523 C79.3394495,43.8536585 81.7027523,37.804878 81.7027523,31.0840108 C81.7027523,21.3387534 78.4954128,13.6097561 72.0807339,8.23306233 C65.666055,2.68834688 57.0568807,0 46.253211,0 C35.6183486,0 27.1779817,2.85636856 20.7633028,8.73712737 C14.1798165,14.7859079 10.1284404,23.3550136 8.60917431,34.7804878 L18.5688073,34.7804878 C21.1009174,17.4742547 30.3853211,8.90514905 46.253211,8.90514905 C54.3559633,8.90514905 60.6018349,10.7533875 64.9908257,14.6178862 C69.2110092,18.4823848 71.4055046,23.8590786 71.4055046,30.9159892 C71.4055046,36.796748 68.5357798,42.0054201 63.133945,46.5420054 C62.1211009,47.2140921 60.9394495,48.2222222 59.2513761,49.2303523 L0,49.2303523 Z" id="₴-copy" fill="#000000"></path>
                <path d="M14.5695764,35.3937258 C17.4433875,19.8997529 22.84001,5 48.4502012,5 C73.7623956,5 81.0895298,25.2459276 76.8318287,38.4876438 C72.5741275,51.7293601 66.5458881,52.8049165 50.2170832,61.0761352 C33.8882783,69.3473538 21.366542,75.7943709 16.1673569,85.0923802 C10.9681718,94.3903895 13.6747096,118.924094 40.4868924,120.872919 C67.2990753,122.821744 77.6106096,101.87684 78,90.9406619" id="Path-2" stroke="#000000" stroke-width="3"></path>
                <path d="M1,52 L92,52" id="Path-3" stroke="#000000" stroke-width="3"></path>
                <path d="M1,75 L92,75" id="Path-4" stroke="#000000" stroke-width="3"></path>
            </g>
            <g id="Group-Copy" opacity="0.18" transform="translate(748.000000, -17.000000)">
                <path d="M0,84.9620596 L0,96.8509485 L80.5944954,96.8509485 C78.2752294,98.0108401 76.2458716,99.1707317 73.9266055,100.330623 C52.7633028,111.059621 39.4275229,118.598916 34.2091743,122.948509 L0,122.948509 L0,134.837398 L22.9027523,134.837398 C17.6844037,142.376694 15.0752294,151.075881 15.0752294,160.355014 C15.0752294,176.883469 20.293578,189.932249 31.0201835,199.791328 C41.4568807,209.070461 56.5321101,214 75.666055,214 C93.9302752,214 108.715596,209.070461 119.73211,199.211382 C130.748624,188.772358 137.416514,173.693767 140.315596,154.555556 L123.211009,154.555556 C118.572477,183.842818 102.917431,198.631436 75.666055,198.631436 C61.7504587,198.631436 51.3137615,194.861789 43.7761468,187.612466 C36.2385321,180.943089 32.759633,171.95393 32.759633,160.355014 C32.759633,151.075881 37.3981651,142.376694 46.9651376,134.837398 L158,134.837398 L158,122.948509 L64.9394495,122.948509 C68.9981651,120.628726 73.9266055,118.01897 79.1449541,115.409214 C94.8,107.579946 106.39633,101.490515 113.933945,96.8509485 L158,96.8509485 L158,84.9620596 L128.13945,84.9620596 C136.256881,75.6829268 140.315596,65.2439024 140.315596,53.6449864 C140.315596,36.8265583 134.807339,23.4878049 123.790826,14.2086721 C112.774312,4.6395664 97.9889908,0 79.4348624,0 C61.1706422,0 46.6752294,4.9295393 35.6587156,15.0785908 C24.3522936,25.5176152 17.3944954,40.3062331 14.7853211,60.0243902 L31.8899083,60.0243902 C36.2385321,30.1571816 52.1834862,15.3685637 79.4348624,15.3685637 C93.3504587,15.3685637 104.077064,18.5582656 111.614679,25.2276423 C118.862385,31.897019 122.631193,41.1761518 122.631193,53.3550136 C122.631193,63.504065 117.702752,72.4932249 108.425688,80.3224932 C106.686239,81.4823848 104.656881,83.2222222 101.757798,84.9620596 L0,84.9620596 Z" id="₴-copy" fill="#000000"></path>
                <path d="M23.9700598,59.4029755 C28.8645194,32.6892291 38.0556421,7 81.672999,7 C124.78283,7 137.261855,41.9067717 130.010458,64.7373169 C122.759061,87.5678622 112.492216,89.4222698 84.6822199,103.682992 C56.872224,117.943713 35.5461418,129.05926 26.6912797,145.090311 C17.8364176,161.121361 22.4459898,203.420851 68.1104887,206.780895 C113.774988,210.140938 131.336819,174.029035 132,155.173555" id="Path-2" stroke="#000000" stroke-width="3"></path>
                <path d="M2,90.5 L157,90.5" id="Path-3" stroke="#000000" stroke-width="3"></path>
                <path d="M1,129.5 L157,129.5" id="Path-4" stroke="#000000" stroke-width="3"></path>
            </g>
            <g id="Group-Copy-2" opacity="0.100000001" transform="translate(906.000000, 469.000000)">
                <path d="M0,80.197832 L0,91.4200542 L76.0036697,91.4200542 C73.8165138,92.5149051 71.9027523,93.6097561 69.7155963,94.704607 C49.7577982,104.831978 37.1816514,111.948509 32.2605505,116.054201 L0,116.054201 L0,127.276423 L21.5981651,127.276423 C16.6770642,134.392954 14.2165138,142.604336 14.2165138,151.363144 C14.2165138,166.96477 19.1376147,179.281843 29.253211,188.588076 C39.0954128,197.346883 53.3119266,202 71.3559633,202 C88.5798165,202 102.522936,197.346883 112.911927,188.04065 C123.300917,178.186992 129.588991,163.95393 132.322936,145.888889 L116.192661,145.888889 C111.818349,173.533875 97.0550459,187.493225 71.3559633,187.493225 C58.2330275,187.493225 48.3908257,183.934959 41.2825688,177.092141 C34.1743119,170.796748 30.893578,162.311653 30.893578,151.363144 C30.893578,142.604336 35.2678899,134.392954 44.2899083,127.276423 L149,127.276423 L149,116.054201 L61.240367,116.054201 C65.0678899,113.864499 69.7155963,111.401084 74.6366972,108.937669 C89.4,101.547425 100.33578,95.799458 107.444037,91.4200542 L149,91.4200542 L149,80.197832 L120.840367,80.197832 C128.495413,71.4390244 132.322936,61.5853659 132.322936,50.6368564 C132.322936,34.7615176 127.12844,22.1707317 116.73945,13.4119241 C106.350459,4.37940379 92.4073394,0 74.9100917,0 C57.6862385,0 44.0165138,4.65311653 33.6275229,14.2330623 C22.9651376,24.0867209 16.4036697,38.0460705 13.9431193,56.6585366 L30.0733945,56.6585366 C34.1743119,28.4661247 49.2110092,14.5067751 74.9100917,14.5067751 C88.0330275,14.5067751 98.1486239,17.5176152 105.256881,23.8130081 C112.091743,30.1084011 115.645872,38.8672087 115.645872,50.3631436 C115.645872,59.9430894 110.998165,68.4281843 102.249541,75.8184282 C100.609174,76.9132791 98.6954128,78.5555556 95.9614679,80.197832 L0,80.197832 Z" id="₴-copy" fill="#000000"></path>
                <path d="M21.9077623,55.258797 C26.4878989,30.1478753 35.088766,6 75.9050082,6 C116.246318,6 127.923938,38.8123654 121.138227,60.2730779 C114.352516,81.7337905 104.745009,83.4769336 78.7209764,96.8820121 C52.6969436,110.287091 32.7404263,120.735705 24.454225,135.804892 C16.1680238,150.87408 20.4815684,190.6356 63.2134848,193.794041 C105.945401,196.952482 122.379409,163.007293 123,145.283142" id="Path-2" stroke="#000000" stroke-width="3"></path>
                <path d="M1,86 L149,86" id="Path-3" stroke="#000000" stroke-width="3"></path>
                <path d="M0,123 L148,123" id="Path-4" stroke="#000000" stroke-width="3"></path>
            </g>
            <g id="Group-Copy-6" opacity="0.100000001" transform="translate(157.000000, 90.000000)">
                <path d="M0,32.5555556 L0,37.1111111 L31.1155963,37.1111111 C30.2201835,37.5555556 29.4366972,38 28.5412844,38.4444444 C20.3706422,42.5555556 15.2220183,45.4444444 13.2073394,47.1111111 L0,47.1111111 L0,51.6666667 L8.84220183,51.6666667 C6.82752294,54.5555556 5.82018349,57.8888889 5.82018349,61.4444444 C5.82018349,67.7777778 7.83486239,72.7777778 11.9761468,76.5555556 C16.0055046,80.1111111 21.8256881,82 29.212844,82 C36.2642202,82 41.9724771,80.1111111 46.2256881,76.3333333 C50.4788991,72.3333333 53.053211,66.5555556 54.1724771,59.2222222 L47.5688073,59.2222222 C45.7779817,70.4444444 39.733945,76.1111111 29.212844,76.1111111 C23.840367,76.1111111 19.8110092,74.6666667 16.9009174,71.8888889 C13.9908257,69.3333333 12.6477064,65.8888889 12.6477064,61.4444444 C12.6477064,57.8888889 14.4385321,54.5555556 18.1321101,51.6666667 L61,51.6666667 L61,47.1111111 L25.0715596,47.1111111 C26.6385321,46.2222222 28.5412844,45.2222222 30.5559633,44.2222222 C36.6,41.2222222 41.0770642,38.8888889 43.987156,37.1111111 L61,37.1111111 L61,32.5555556 L49.4715596,32.5555556 C52.6055046,29 54.1724771,25 54.1724771,20.5555556 C54.1724771,14.1111111 52.0458716,9 47.7926606,5.44444444 C43.5394495,1.77777778 37.8311927,0 30.6678899,0 C23.6165138,0 18.0201835,1.88888889 13.7669725,5.77777778 C9.40183486,9.77777778 6.71559633,15.4444444 5.70825688,23 L12.3119266,23 C13.9908257,11.5555556 20.146789,5.88888889 30.6678899,5.88888889 C36.040367,5.88888889 40.1816514,7.11111111 43.0917431,9.66666667 C45.8899083,12.2222222 47.3449541,15.7777778 47.3449541,20.4444444 C47.3449541,24.3333333 45.4422018,27.7777778 41.8605505,30.7777778 C41.1889908,31.2222222 40.4055046,31.8888889 39.2862385,32.5555556 L0,32.5555556 Z" id="₴-copy" fill="#000000"></path>
                <path d="M9.3737845,21.9131307 C11.2597231,11.761907 14.8012566,2 31.6079446,2 C48.2190721,2 53.0275039,15.2645733 50.2333876,23.9401804 C47.4392712,32.6157876 43.4832391,33.3204625 32.7674609,38.7395368 C22.0516827,44.1586111 13.8342932,48.3825189 10.422328,54.4743181 C7.01036274,60.5661173 8.78652818,76.6399235 26.3820232,77.91674 C43.9775182,79.1935565 50.7444625,65.4710333 51,58.3059509" id="Path-2" stroke="#000000" stroke-width="3"></path>
                <path d="M1,35 L61,35" id="Path-3" stroke="#000000" stroke-width="3"></path>
                <path d="M0,50 L60,50" id="Path-4" stroke="#000000" stroke-width="3"></path>
            </g>
            <g id="Group-Copy-8" opacity="0.100000001" transform="translate(1261.000000, 671.000000)">
                <path d="M0,32.5555556 L0,37.1111111 L31.1155963,37.1111111 C30.2201835,37.5555556 29.4366972,38 28.5412844,38.4444444 C20.3706422,42.5555556 15.2220183,45.4444444 13.2073394,47.1111111 L0,47.1111111 L0,51.6666667 L8.84220183,51.6666667 C6.82752294,54.5555556 5.82018349,57.8888889 5.82018349,61.4444444 C5.82018349,67.7777778 7.83486239,72.7777778 11.9761468,76.5555556 C16.0055046,80.1111111 21.8256881,82 29.212844,82 C36.2642202,82 41.9724771,80.1111111 46.2256881,76.3333333 C50.4788991,72.3333333 53.053211,66.5555556 54.1724771,59.2222222 L47.5688073,59.2222222 C45.7779817,70.4444444 39.733945,76.1111111 29.212844,76.1111111 C23.840367,76.1111111 19.8110092,74.6666667 16.9009174,71.8888889 C13.9908257,69.3333333 12.6477064,65.8888889 12.6477064,61.4444444 C12.6477064,57.8888889 14.4385321,54.5555556 18.1321101,51.6666667 L61,51.6666667 L61,47.1111111 L25.0715596,47.1111111 C26.6385321,46.2222222 28.5412844,45.2222222 30.5559633,44.2222222 C36.6,41.2222222 41.0770642,38.8888889 43.987156,37.1111111 L61,37.1111111 L61,32.5555556 L49.4715596,32.5555556 C52.6055046,29 54.1724771,25 54.1724771,20.5555556 C54.1724771,14.1111111 52.0458716,9 47.7926606,5.44444444 C43.5394495,1.77777778 37.8311927,0 30.6678899,0 C23.6165138,0 18.0201835,1.88888889 13.7669725,5.77777778 C9.40183486,9.77777778 6.71559633,15.4444444 5.70825688,23 L12.3119266,23 C13.9908257,11.5555556 20.146789,5.88888889 30.6678899,5.88888889 C36.040367,5.88888889 40.1816514,7.11111111 43.0917431,9.66666667 C45.8899083,12.2222222 47.3449541,15.7777778 47.3449541,20.4444444 C47.3449541,24.3333333 45.4422018,27.7777778 41.8605505,30.7777778 C41.1889908,31.2222222 40.4055046,31.8888889 39.2862385,32.5555556 L0,32.5555556 Z" id="₴-copy" fill="#000000"></path>
                <path d="M9.3737845,21.9131307 C11.2597231,11.761907 14.8012566,2 31.6079446,2 C48.2190721,2 53.0275039,15.2645733 50.2333876,23.9401804 C47.4392712,32.6157876 43.4832391,33.3204625 32.7674609,38.7395368 C22.0516827,44.1586111 13.8342932,48.3825189 10.422328,54.4743181 C7.01036274,60.5661173 8.78652818,76.6399235 26.3820232,77.91674 C43.9775182,79.1935565 50.7444625,65.4710333 51,58.3059509" id="Path-2" stroke="#000000" stroke-width="3"></path>
                <path d="M1,35 L61,35" id="Path-3" stroke="#000000" stroke-width="3"></path>
                <path d="M0,50 L60,50" id="Path-4" stroke="#000000" stroke-width="3"></path>
            </g>
            <g id="Group-Copy-7" opacity="0.100000001" transform="translate(1153.000000, 49.000000)">
                <path d="M0,32.5555556 L0,37.1111111 L31.1155963,37.1111111 C30.2201835,37.5555556 29.4366972,38 28.5412844,38.4444444 C20.3706422,42.5555556 15.2220183,45.4444444 13.2073394,47.1111111 L0,47.1111111 L0,51.6666667 L8.84220183,51.6666667 C6.82752294,54.5555556 5.82018349,57.8888889 5.82018349,61.4444444 C5.82018349,67.7777778 7.83486239,72.7777778 11.9761468,76.5555556 C16.0055046,80.1111111 21.8256881,82 29.212844,82 C36.2642202,82 41.9724771,80.1111111 46.2256881,76.3333333 C50.4788991,72.3333333 53.053211,66.5555556 54.1724771,59.2222222 L47.5688073,59.2222222 C45.7779817,70.4444444 39.733945,76.1111111 29.212844,76.1111111 C23.840367,76.1111111 19.8110092,74.6666667 16.9009174,71.8888889 C13.9908257,69.3333333 12.6477064,65.8888889 12.6477064,61.4444444 C12.6477064,57.8888889 14.4385321,54.5555556 18.1321101,51.6666667 L61,51.6666667 L61,47.1111111 L25.0715596,47.1111111 C26.6385321,46.2222222 28.5412844,45.2222222 30.5559633,44.2222222 C36.6,41.2222222 41.0770642,38.8888889 43.987156,37.1111111 L61,37.1111111 L61,32.5555556 L49.4715596,32.5555556 C52.6055046,29 54.1724771,25 54.1724771,20.5555556 C54.1724771,14.1111111 52.0458716,9 47.7926606,5.44444444 C43.5394495,1.77777778 37.8311927,0 30.6678899,0 C23.6165138,0 18.0201835,1.88888889 13.7669725,5.77777778 C9.40183486,9.77777778 6.71559633,15.4444444 5.70825688,23 L12.3119266,23 C13.9908257,11.5555556 20.146789,5.88888889 30.6678899,5.88888889 C36.040367,5.88888889 40.1816514,7.11111111 43.0917431,9.66666667 C45.8899083,12.2222222 47.3449541,15.7777778 47.3449541,20.4444444 C47.3449541,24.3333333 45.4422018,27.7777778 41.8605505,30.7777778 C41.1889908,31.2222222 40.4055046,31.8888889 39.2862385,32.5555556 L0,32.5555556 Z" id="₴-copy" fill="#000000"></path>
                <path d="M9.3737845,21.9131307 C11.2597231,11.761907 14.8012566,2 31.6079446,2 C48.2190721,2 53.0275039,15.2645733 50.2333876,23.9401804 C47.4392712,32.6157876 43.4832391,33.3204625 32.7674609,38.7395368 C22.0516827,44.1586111 13.8342932,48.3825189 10.422328,54.4743181 C7.01036274,60.5661173 8.78652818,76.6399235 26.3820232,77.91674 C43.9775182,79.1935565 50.7444625,65.4710333 51,58.3059509" id="Path-2" stroke="#000000" stroke-width="3"></path>
                <path d="M1,35 L61,35" id="Path-3" stroke="#000000" stroke-width="3"></path>
                <path d="M0,50 L60,50" id="Path-4" stroke="#000000" stroke-width="3"></path>
            </g>
            <g id="Group-Copy-5" opacity="0.150000006" transform="translate(1322.000000, 272.000000)">
                <path d="M0,58.7588076 L0,66.9810298 L56.1100917,66.9810298 C54.4954128,67.7831978 53.0825688,68.5853659 51.4678899,69.3875339 C36.733945,76.8075881 27.4495413,82.0216802 23.8165138,85.0298103 L0,85.0298103 L0,93.2520325 L15.9449541,93.2520325 C12.3119266,98.4661247 10.4954128,104.482385 10.4954128,110.899729 C10.4954128,122.330623 14.1284404,131.355014 21.5963303,138.173442 C28.8623853,144.590786 39.3577982,148 52.6788991,148 C65.3944954,148 75.6880734,144.590786 83.3577982,137.772358 C91.0275229,130.552846 95.6697248,120.124661 97.6880734,106.888889 L85.7798165,106.888889 C82.5504587,127.143631 71.6513761,137.371274 52.6788991,137.371274 C42.9908257,137.371274 35.7247706,134.764228 30.4770642,129.750678 C25.2293578,125.138211 22.8073394,118.921409 22.8073394,110.899729 C22.8073394,104.482385 26.0366972,98.4661247 32.6972477,93.2520325 L110,93.2520325 L110,85.0298103 L45.2110092,85.0298103 C48.0366972,83.4254743 51.4678899,81.6205962 55.1009174,79.8157182 C66,74.401084 74.0733945,70.1897019 79.3211009,66.9810298 L110,66.9810298 L110,58.7588076 L89.2110092,58.7588076 C94.8623853,52.3414634 97.6880734,45.1219512 97.6880734,37.100271 C97.6880734,25.4688347 93.853211,16.2439024 86.1834862,9.82655827 C78.5137615,3.20867209 68.2201835,0 55.3027523,0 C42.587156,0 32.4954128,3.40921409 24.8256881,10.4281843 C16.9541284,17.6476965 12.1100917,27.8753388 10.293578,41.5121951 L22.2018349,41.5121951 C25.2293578,20.8563686 36.3302752,10.6287263 55.3027523,10.6287263 C64.9908257,10.6287263 72.4587156,12.8346883 77.706422,17.4471545 C82.7522936,22.0596206 85.3761468,28.4769648 85.3761468,36.899729 C85.3761468,43.9186992 81.9449541,50.1355014 75.4862385,55.5501355 C74.2752294,56.3523035 72.8623853,57.5555556 70.8440367,58.7588076 L0,58.7588076 Z" id="₴-copy" fill="#000000"></path>
                <path d="M16.6763719,40.1580531 C20.0890227,21.7255681 26.4975119,4 56.909614,4 C86.9678448,4 95.6688167,28.0856725 90.6127965,43.8387487 C85.5567764,59.5918249 78.3982422,60.8713662 59.0077863,70.7112642 C39.6173305,80.5511623 24.7477686,88.2208896 18.5737363,99.2823144 C12.399704,110.343739 15.6137177,139.530387 47.4531848,141.848817 C79.2926519,144.167247 91.5375988,119.250034 92,106.239753" id="Path-2" stroke="#000000" stroke-width="3"></path>
                <path d="M1,62.5 L110,62.5" id="Path-3" stroke="#000000" stroke-width="3"></path>
                <path d="M0,89.5 L109,89.5" id="Path-4" stroke="#000000" stroke-width="3"></path>
            </g>
            <g id="Group-Copy-3" opacity="0.25" transform="translate(334.000000, 525.000000)">
                <path d="M0,127.443089 L0,145.276423 L121.401835,145.276423 C117.908257,147.01626 114.851376,148.756098 111.357798,150.495935 C79.4788991,166.589431 59.3908257,177.898374 51.5302752,184.422764 L0,184.422764 L0,202.256098 L34.4990826,202.256098 C26.6385321,213.565041 22.7082569,226.613821 22.7082569,240.53252 C22.7082569,265.325203 30.5688073,284.898374 46.7266055,299.686992 C62.4477064,313.605691 85.1559633,321 113.977982,321 C141.489908,321 163.761468,313.605691 180.355963,298.817073 C196.950459,283.158537 206.994495,260.54065 211.361468,231.833333 L185.59633,231.833333 C178.609174,275.764228 155.027523,297.947154 113.977982,297.947154 C93.0165138,297.947154 77.2954128,292.292683 65.9412844,281.418699 C54.587156,271.414634 49.346789,257.930894 49.346789,240.53252 C49.346789,226.613821 56.333945,213.565041 70.7449541,202.256098 L238,202.256098 L238,184.422764 L97.8201835,184.422764 C103.933945,180.943089 111.357798,177.028455 119.218349,173.113821 C142.8,161.369919 160.26789,152.235772 171.622018,145.276423 L238,145.276423 L238,127.443089 L193.020183,127.443089 C205.247706,113.52439 211.361468,97.8658537 211.361468,80.4674797 C211.361468,55.2398374 203.06422,35.2317073 186.469725,21.3130081 C169.875229,6.95934959 147.60367,0 119.655046,0 C92.1431193,0 70.3082569,7.39430894 53.7137615,22.6178862 C36.6825688,38.2764228 26.2018349,60.4593496 22.2715596,90.0365854 L48.0366972,90.0365854 C54.587156,45.2357724 78.6055046,23.0528455 119.655046,23.0528455 C140.616514,23.0528455 156.774312,27.8373984 168.12844,37.8414634 C179.045872,47.8455285 184.722936,61.7642276 184.722936,80.0325203 C184.722936,95.2560976 177.299083,108.739837 163.324771,120.48374 C160.704587,122.223577 157.647706,124.833333 153.280734,127.443089 L0,127.443089 Z" id="₴-copy" fill="#000000"></path>
                <path d="M35.4595395,87.3424484 C42.8236806,47.4053975 56.6525257,9 122.278641,9 C187.141139,9 205.91692,61.1856237 195.006561,95.3172888 C184.096202,129.448954 168.648838,132.221293 126.806276,153.541073 C84.9637132,174.860852 52.8767638,191.478594 39.553852,215.445015 C26.2309402,239.411435 33.1664434,302.649173 101.872662,307.672438 C170.57888,312.695703 197.002187,258.708407 198,230.519465" id="Path-2" stroke="#000000" stroke-width="3"></path>
                <path d="M3,136 L238,136" id="Path-3" stroke="#000000" stroke-width="3"></path>
                <path d="M0,194 L235,194" id="Path-4" stroke="#000000" stroke-width="3"></path>
            </g>
        </g>
    </g>
</svg>